# xmcd
#
# Track frame offsets:
#	225
#	12155
#	24430
#	39545
#	52463
#	63223
#	78173
#	88335
#	103283
#	114498
#	128045
#	141365
#	153695
#	167528
#	176353
#	188760
#	206895
#	217640
#
# Disc length: 3085
#
# Revision: 2
# Processed by: cddbd v1.5.1PL0 Copyright (c) Steve Scherf et al.
# Submitted via: CDex 1.50
# Normalized: r1:DSETVAR2,TDELIM( - )
#
DISCID=f90c0a12
DTITLE=Various Artist - Country Greats
DYEAR=1993
DGENRE=Country
TTITLE0=Jim Reeves - Mexican Joe
TTITLE1=Ray Price - Rain And Tears
TTITLE2=Willie Nelson - Face Of A Fighter
TTITLE3=Lee Hazlewood - These Boots Are Made For Walkin
TTITLE4=Hank Locklin - Send Me The Pillow
TTITLE5=Frankie Laine - Sixteen Tons
TTITLE6=Carl Perkins - Daddy Sang Bass
TTITLE7=Billie Joe Spears - Chriystal Chandeliers
TTITLE8=Conway Twitty - Have I Been Away Too Long
TTITLE9=Johnny Tillotson - I´m So Lonesome I Could Cry
TTITLE10=Roy Acuff - Tennessee Waltz
TTITLE11=Karl Denver - Mexicali Rose
TTITLE12=B. J. Thomas - Raindrops Keep Falling On My Head
TTITLE13=Ferlin Husky - Wings Of A Dove
TTITLE14=The Kendalls - Pick Me Up On Your Way Down
TTITLE15=Rick Nelson - Garden Party
TTITLE16=Charley Pride - Oklahoma Morning
TTITLE17=George Jones - A Good Year For The Roses
EXTD=YEAR: 1993
EXTT0=
EXTT1=
EXTT2=
EXTT3=
EXTT4=
EXTT5=
EXTT6=
EXTT7=
EXTT8=
EXTT9=
EXTT10=
EXTT11=
EXTT12=
EXTT13=
EXTT14=
EXTT15=
EXTT16=
EXTT17=
PLAYORDER=
